<?xml version="1.0" standalone="no"?>
<!DOCTYPE svg PUBLIC "-//W3C//DTD SVG 20010904//EN"
 "http://www.w3.org/TR/2001/REC-SVG-20010904/DTD/svg10.dtd">
<svg version="1.0" xmlns="http://www.w3.org/2000/svg"
 width="16.000000pt" height="16.000000pt" viewBox="0 0 16.000000 16.000000"
 preserveAspectRatio="xMidYMid meet">

<g transform="translate(0.000000,16.000000) scale(0.100000,-0.100000)"
fill="#000000" stroke="none">
<path d="M12 148 c-16 -16 -16 -120 0 -136 13 -13 48 -17 48 -6 0 4 -8 13 -17
20 -17 13 -17 14 0 8 21 -8 22 5 1 21 -12 8 -15 20 -10 41 6 26 10 29 46 29
36 0 40 -3 46 -29 5 -21 2 -33 -10 -41 -22 -17 -21 -55 2 -55 10 0 23 5 30 12
16 16 16 120 0 136 -16 16 -120 16 -136 0z"/>
</g>
</svg>
